<svg width="40" height="40" viewBox="0 0 40 40" fill="none" xmlns="http://www.w3.org/2000/svg">
  <rect width="40" height="40" fill="#FF5900"/>
  <path d="M12.0509 16.4066L12.0509 10.2192C12.0509 8.78766 13.2114 7.62714 14.643 7.62714C16.0746 7.62714 17.2351 8.78766 17.2351 10.2192L17.2351 16.4066V25.4367C17.2351 29.3927 20.4421 32.5997 24.3981 32.5997H27.5124C28.8863 32.5997 29.9999 31.486 29.9999 30.1122C29.9999 28.7384 28.8862 27.6247 27.5124 27.6247H22.5007C20.495 27.6247 19.4921 27.6247 18.6594 27.4521C15.4232 26.7812 12.8945 24.2524 12.2235 21.0162C12.0509 20.1835 12.0509 19.1806 12.0509 17.1749V16.4066Z" stroke="white" stroke-width="1.36569"/>
  <circle cx="14.6359" cy="10.2122" r="2.58505" stroke="white" stroke-width="1.36569"/>
</svg>
